<?xml version="1.0" standalone="no"?>
<!DOCTYPE svg PUBLIC "-//W3C//DTD SVG 1.1//EN"
"http://www.w3.org/Graphics/SVG/1.1/DTD/svg11.dtd">

<svg width="342" height="86" view_box="0 0 342 86"
xmlns="http://www.w3.org/2000/svg"
xmlns:link="http://www.w3.org/1999/xlink">\n\n<desc>Généré par Mocodo 2.3.7 le Sat, 25 Jul 2020 02:52:58</desc>

<rect id="frame" x="0" y="0" width="342" height="86" fill="#ffffbf" stroke="none" stroke-width="0"/>

<!-- Association HAS -->
<line x1="294" y1="43" x2="171" y2="43" stroke="#66c2a5" stroke-width="2"/>
<text x="229" y="60.0" fill="#d53e4f" font-family="Verdana" font-size="12">1,1</text>
<line x1="48" y1="43" x2="171" y2="43" stroke="#66c2a5" stroke-width="2"/>
<text x="92" y="60.0" fill="#d53e4f" font-family="Verdana" font-size="12">0,N</text>
<g id="association-HAS">
	<path d="M 177 18 a 14 14 90 0 1 14 14 V 43 h -40 V 32 a 14 14 90 0 1 14 -14" fill="#abdda4" stroke="#abdda4" stroke-width="0"/>
	<path d="M 191 43.0 v 11 a 14 14 90 0 1 -14 14 H 165 a 14 14 90 0 1 -14 -14 V 43.0 H 40" fill="#e6f598" stroke="#e6f598" stroke-width="0"/>
	<rect x="151" y="18" width="40" height="50" fill="none" rx="14" stroke="#66c2a5" stroke-width="2"/>
	<line x1="151" y1="43" x2="191" y2="43" stroke="#66c2a5" stroke-width="1"/>
	<text x="158" y="35.7" fill="#000000" font-family="Verdana" font-size="12">HAS</text>
</g>

<!-- Entity CATEGORY -->
<g id="entity-CATEGORY">
	<g id="frame-CATEGORY">
		<rect x="9" y="18" width="78" height="25" fill="#fdae61" stroke="#fdae61" stroke-width="0"/>
		<rect x="9" y="43.0" width="78" height="25" fill="#fee08b" stroke="#fee08b" stroke-width="0"/>
		<rect x="9" y="18" width="78" height="50" fill="none" stroke="#f46d43" stroke-width="2"/>
		<line x1="9" y1="43" x2="87" y2="43" stroke="#f46d43" stroke-width="1"/>
	</g>
	<text x="14" y="35.7" fill="#000000" font-family="Verdana" font-size="12">CATEGORY</text>
	<text x="14" y="60.8" fill="#000000" font-family="Verdana" font-size="12">label</text>
	<line x1="14" y1="63" x2="43" y2="63" stroke="#000000" stroke-width="1"/>
</g>

<!-- Entity CAT -->
<g id="entity-CAT">
	<g id="frame-CAT">
		<rect x="255" y="9" width="78" height="25" fill="#fdae61" stroke="#fdae61" stroke-width="0"/>
		<rect x="255" y="34.0" width="78" height="43" fill="#fee08b" stroke="#fee08b" stroke-width="0"/>
		<rect x="255" y="9" width="78" height="68" fill="none" stroke="#f46d43" stroke-width="2"/>
		<line x1="255" y1="34" x2="333" y2="34" stroke="#f46d43" stroke-width="1"/>
	</g>
	<text x="281" y="26.7" fill="#000000" font-family="Verdana" font-size="12">CAT</text>
	<text x="260" y="51.8" fill="#000000" font-family="Verdana" font-size="12">img</text>
	<line x1="260" y1="54" x2="283" y2="54" stroke="#000000" stroke-width="1"/>
	<text x="260" y="68.8" fill="#000000" font-family="Verdana" font-size="12">description</text>
</g>
</svg>